<?xml version="1.0" standalone="no"?>
<!DOCTYPE svg PUBLIC "-//W3C//DTD SVG 20010904//EN"
 "http://www.w3.org/TR/2001/REC-SVG-20010904/DTD/svg10.dtd">
<svg version="1.0" xmlns="http://www.w3.org/2000/svg"
 width="1920.000000pt" height="1080.000000pt" viewBox="0 0 1920.000000 1080.000000"
 preserveAspectRatio="xMidYMid meet">

<g transform="translate(0.000000,1080.000000) scale(0.100000,-0.100000)"
fill="#000000" stroke="none">
<path d="M2 7613 l3 -3188 38 0 c23 0 37 -5 37 -12 0 -9 18 -13 59 -13 50 0
59 -3 64 -20 4 -17 14 -20 61 -20 49 0 56 -2 56 -20 0 -17 -7 -20 -40 -20 -36
0 -40 -2 -40 -25 0 -19 5 -25 21 -25 29 0 59 18 59 35 0 12 16 15 80 15 l80 0
0 -40 c0 -34 3 -40 21 -40 11 0 17 4 14 10 -11 17 28 70 51 70 23 0 34 -17 34
-56 0 -17 6 -24 20 -24 11 0 20 5 20 10 0 6 18 10 40 10 36 0 55 -13 30 -22
-6 -1 47 -2 117 0 71 2 130 8 131 13 5 12 162 12 162 -1 0 -6 29 -10 66 -10
51 0 71 -4 83 -18 23 -24 57 -42 81 -42 11 0 20 -4 20 -10 0 -5 20 -10 45 -10
38 0 45 -3 45 -19 0 -23 23 -32 67 -27 40 5 53 13 53 32 0 8 5 14 10 14 6 0
10 -4 10 -9 0 -5 7 -8 17 -7 10 1 19 -10 25 -30 8 -30 10 -31 63 -33 31 0 55
3 55 9 0 13 77 13 82 0 2 -5 29 -11 61 -11 49 -1 57 -4 57 -20 0 -11 5 -19 10
-19 6 0 10 5 10 10 0 15 106 12 145 -4 34 -15 35 -14 35 8 0 13 7 27 16 30 23
9 24 8 24 -19 0 -18 5 -25 20 -25 11 0 20 5 20 10 0 6 27 10 60 10 33 0 60 -4
60 -10 0 -6 -27 -10 -60 -10 -53 0 -60 -2 -60 -20 0 -18 7 -20 80 -20 75 0 80
1 80 21 0 18 3 19 14 10 10 -9 54 -12 138 -10 109 2 123 1 126 -14 4 -18 14
-22 25 -10 4 3 34 5 66 4 44 -2 60 1 64 13 5 11 18 13 62 10 46 -4 60 -1 82
15 26 21 58 27 66 14 2 -5 2 -3 1 4 -2 7 6 15 17 18 10 4 19 11 19 16 0 5 6 9
13 9 6 0 23 14 36 30 13 17 27 30 33 30 5 0 18 9 30 19 16 15 33 19 77 18 34
-1 60 -7 67 -16 9 -11 12 -11 18 5 6 16 9 16 16 4 7 -10 10 1 10 38 0 37 4 54
15 58 8 4 15 17 15 31 0 16 14 37 42 61 23 20 51 46 62 57 11 11 29 25 40 30
11 6 23 23 27 39 13 49 37 67 78 60 20 -4 43 -13 51 -20 16 -13 75 -13 167 2
24 4 48 2 55 -3 14 -10 20 -10 55 2 16 5 24 18 28 44 12 71 16 82 33 87 9 4
32 13 50 21 18 8 40 12 49 9 8 -3 24 1 36 9 23 16 147 22 161 7 4 -4 35 -11
69 -17 53 -9 62 -13 65 -33 4 -29 26 -28 60 3 37 35 143 85 180 85 17 0 35 -6
39 -13 12 -20 81 -49 101 -43 28 10 150 130 161 159 6 16 11 39 11 52 0 25 22
44 104 90 38 21 65 28 125 31 62 3 79 7 93 24 9 12 15 27 12 35 -3 8 6 29 20
48 27 35 34 53 16 42 -19 -12 -50 6 -50 28 0 13 -13 33 -32 48 l-31 26 13 62
c9 41 19 65 32 72 10 6 23 21 28 35 5 13 16 24 24 24 7 0 16 6 19 14 3 8 28
17 59 21 110 14 113 22 22 61 -44 18 -70 36 -77 52 -10 21 -15 23 -53 17 -46
-6 -69 9 -42 29 19 14 30 57 19 75 -6 9 -1 21 15 36 25 23 32 45 14 45 -5 0
-17 -11 -26 -24 -13 -21 -19 -23 -40 -15 -38 14 -85 11 -105 -7 -12 -11 -40
-17 -79 -19 l-62 -2 6 33 c4 19 2 34 -4 36 -8 2 -8 11 -1 32 14 35 5 49 -25
42 -12 -3 -34 -1 -48 5 -20 9 -29 9 -40 0 -9 -7 -43 -15 -77 -18 -59 -6 -61
-5 -54 16 8 26 -19 40 -46 23 -23 -15 -123 -16 -114 -2 15 25 -128 43 -152 19
-8 -8 -25 -9 -50 -4 -21 4 -59 7 -85 6 -48 -2 -90 16 -116 51 -7 10 -25 18
-39 18 -26 0 -26 -1 -7 -15 17 -13 -1 -15 -176 -11 -122 3 -206 9 -225 16 -16
7 -68 19 -114 26 -69 11 -87 10 -105 0 -17 -11 -33 -11 -78 -3 -50 10 -57 14
-52 30 7 23 -25 87 -44 87 -14 0 -13 -13 3 -54 7 -16 0 -15 -51 12 -32 16 -68
33 -78 36 -17 6 -14 9 17 26 31 17 47 19 95 13 83 -11 107 -10 107 5 0 7 7 17
15 23 10 7 -8 8 -57 3 -61 -5 -73 -4 -73 8 0 8 9 23 20 33 24 21 26 40 5 31
-8 -3 -21 -3 -29 0 -11 4 -10 12 7 39 18 28 28 34 58 35 22 0 43 -8 57 -20 22
-20 62 -27 62 -11 0 5 3 16 6 24 4 11 -2 16 -23 19 -16 2 -29 10 -31 20 -2 11
2 15 15 12 10 -2 62 -8 115 -13 53 -5 107 -16 120 -24 26 -18 69 -27 148 -34
38 -4 59 -11 67 -24 12 -16 25 -17 101 -14 48 2 130 9 182 15 91 11 141 9 325
-16 58 -8 203 -17 250 -16 160 3 284 0 367 -9 65 -6 110 -7 135 0 21 5 110 10
198 10 107 0 183 5 230 15 42 10 120 16 196 16 145 0 195 13 249 64 50 48 76
59 119 51 75 -13 147 -39 166 -60 12 -12 25 -20 31 -18 5 2 20 -6 32 -17 11
-11 28 -20 36 -20 8 0 28 -11 43 -25 l28 -24 -41 3 c-50 4 -65 12 -62 34 2 13
-4 16 -34 13 -21 -1 -38 2 -38 7 0 6 -16 10 -36 9 -49 -1 -62 -33 -34 -80 13
-20 20 -50 20 -82 1 -56 17 -85 49 -85 17 0 21 -6 21 -30 0 -17 7 -33 17 -38
23 -13 10 -42 -16 -35 -13 3 -21 1 -21 -7 0 -7 -8 -9 -19 -5 -11 3 -22 1 -26
-5 -3 -5 0 -10 8 -10 8 0 17 -6 20 -12 5 -15 -89 -19 -110 -5 -7 5 -17 5 -23
2 -5 -3 -53 -6 -105 -6 l-94 -1 -28 -33 c-15 -18 -33 -30 -40 -28 -9 4 -11 0
-7 -11 5 -13 0 -16 -25 -16 -21 0 -31 5 -31 16 0 8 -15 21 -34 29 -19 8 -36
20 -38 27 -4 10 -10 10 -32 0 -20 -9 -32 -10 -41 -2 -20 16 -7 -70 14 -93 9
-11 16 -37 16 -65 l0 -47 48 -15 c27 -9 62 -28 80 -43 17 -15 35 -27 40 -27 4
0 5 -5 1 -12 -5 -7 -2 -9 8 -5 9 3 27 -1 42 -8 15 -8 24 -10 21 -6 -3 5 2 11
10 15 8 3 17 1 20 -5 4 -5 16 2 27 16 10 14 24 25 29 25 14 0 44 -31 44 -44 0
-6 17 -10 38 -10 43 2 47 -7 12 -26 -16 -8 -30 -29 -37 -54 -24 -80 -14 -93
68 -88 48 3 56 7 64 28 10 26 40 33 40 10 0 -8 4 -16 10 -18 5 -1 12 -17 16
-34 5 -27 3 -33 -16 -39 -35 -11 -14 -18 49 -16 49 1 70 -4 122 -31 35 -18 65
-40 67 -48 2 -8 8 -16 13 -18 12 -5 12 -52 -1 -52 -13 0 -31 -46 -25 -62 3 -7
19 -21 36 -31 17 -9 33 -26 36 -37 3 -11 8 -20 12 -20 3 0 7 -13 8 -30 2 -21
17 -45 53 -81 27 -28 50 -56 50 -64 0 -7 7 -16 16 -19 8 -3 12 -11 9 -16 -4
-7 2 -9 18 -5 18 5 29 1 40 -15 14 -20 16 -21 52 -6 45 19 58 13 50 -24 -3
-16 -7 -42 -7 -59 -1 -17 -5 -28 -10 -25 -4 3 -8 1 -8 -4 0 -6 -16 -19 -35
-31 -21 -12 -35 -28 -35 -40 0 -25 -21 -19 -64 16 -15 13 -42 31 -59 39 -24
13 -31 14 -38 2 -5 -7 -9 -9 -9 -3 0 5 -5 4 -12 -3 -8 -8 -11 -45 -10 -112 3
-88 0 -104 -20 -139 -22 -38 -22 -41 -6 -74 l17 -36 -30 -6 c-20 -5 -43 0 -72
14 -51 25 -67 26 -67 6 0 -8 -9 -15 -20 -15 -19 0 -87 -65 -83 -80 1 -4 -3 -7
-10 -7 -24 2 -113 -14 -130 -24 -12 -7 -30 -6 -55 3 -43 14 -63 28 -41 28 9 0
25 11 37 25 12 14 31 25 42 25 33 0 23 16 -17 26 -43 10 -58 42 -24 51 12 3
21 10 21 17 0 6 5 4 10 -4 8 -13 10 -13 10 2 0 9 6 18 13 21 6 2 -3 11 -20 21
-26 13 -33 23 -33 45 0 16 -7 34 -16 42 -20 16 -53 19 -48 4 3 -7 -13 -17 -38
-24 -131 -38 -119 -38 -142 -8 -12 15 -32 27 -44 27 -20 0 -59 -16 -72 -30 -7
-8 -27 -6 -36 3 -13 13 -26 7 -20 -9 4 -10 -1 -25 -11 -36 -14 -16 -15 -24 -6
-49 7 -17 10 -36 7 -44 -3 -7 -1 -16 5 -20 6 -3 11 -16 11 -27 0 -12 7 -29 16
-39 14 -16 14 -21 -5 -64 -24 -55 -26 -71 -8 -77 20 -8 37 2 37 22 0 21 58 83
70 75 9 -6 60 55 60 72 0 5 9 18 20 28 18 16 25 17 60 6 33 -10 44 -20 57 -51
13 -30 20 -36 30 -28 10 8 13 6 13 -9 0 -11 -6 -20 -14 -20 -8 0 -28 -11 -44
-24 -37 -29 -43 -77 -12 -97 11 -7 20 -17 20 -22 0 -15 -43 -29 -60 -20 -17
10 -70 -15 -70 -33 0 -7 6 -22 14 -33 13 -19 12 -20 -20 -16 -25 3 -34 9 -34
23 0 25 -42 51 -77 49 -15 -1 -32 -1 -38 0 -5 2 -26 3 -45 4 -32 1 -35 4 -38
34 -2 18 -7 30 -12 27 -13 -8 -23 40 -16 75 4 23 1 33 -16 44 -26 18 -18 43
17 52 25 6 35 37 15 49 -5 3 -10 15 -10 25 0 21 -39 46 -80 51 -21 3 -25 0
-23 -21 8 -96 11 -118 18 -138 7 -20 4 -22 -31 -22 -36 0 -42 4 -72 50 -30 46
-71 81 -73 63 -1 -4 0 -23 1 -40 1 -31 0 -33 -34 -33 -19 0 -38 5 -41 10 -12
19 -27 10 -22 -13 8 -31 -2 -41 -43 -45 -19 -2 -47 -11 -62 -20 -25 -15 -30
-15 -62 0 -27 13 -51 16 -108 11 -40 -3 -81 -10 -91 -15 -12 -6 -19 -5 -23 6
-8 21 -59 15 -59 -6 0 -10 -10 -26 -23 -38 -12 -11 -22 -24 -22 -28 -1 -4 -2
-55 -4 -114 -2 -97 -5 -110 -29 -145 -15 -22 -27 -44 -27 -50 0 -15 -33 -21
-174 -28 -93 -6 -126 -12 -155 -28 -47 -27 -81 -57 -81 -73 0 -7 -6 -15 -12
-17 -10 -4 -10 -6 0 -6 6 -1 12 -5 12 -11 0 -5 -7 -7 -15 -4 -8 4 -15 1 -15
-5 0 -6 7 -11 15 -11 25 0 17 -30 -7 -31 -22 0 -22 -1 -3 -9 19 -8 18 -9 -4
-9 -22 -1 -23 -3 -17 -55 7 -51 5 -55 -24 -85 -18 -17 -30 -37 -27 -44 2 -6 1
-38 -3 -70 -3 -31 -2 -57 3 -57 4 0 5 -4 2 -10 -3 -5 3 -10 14 -10 21 0 39
-39 27 -59 -3 -5 8 -12 25 -16 21 -5 34 -3 39 5 6 9 16 10 41 2 19 -6 54 -14
79 -18 24 -3 55 -13 67 -21 18 -12 26 -13 37 -4 12 10 17 8 26 -9 9 -17 14
-19 26 -9 11 9 18 8 34 -6 16 -14 23 -16 32 -7 9 9 3 15 -23 26 -19 9 -26 15
-17 16 26 0 33 21 13 36 -16 12 -16 14 -2 20 9 3 21 3 27 -1 5 -3 10 -2 10 3
0 5 11 15 25 22 14 7 25 19 25 27 0 31 106 123 142 123 5 0 9 -12 8 -27 -3
-50 10 -74 39 -71 24 3 26 0 23 -29 -3 -28 0 -32 25 -35 41 -5 41 -33 -1 -60
-41 -27 -44 -34 -15 -43 13 -4 27 -1 38 9 22 20 55 20 71 1 17 -20 3 -35 -36
-40 -15 -1 -30 -8 -32 -15 -2 -6 -15 -15 -28 -20 -14 -6 -26 -20 -29 -37 -11
-47 -27 -73 -47 -73 -11 0 -16 -5 -13 -10 3 -6 21 -10 40 -10 40 0 49 -11 40
-49 -4 -20 -15 -33 -35 -39 -30 -11 -70 -46 -70 -62 0 -16 -63 -27 -110 -18
-43 8 -47 7 -74 -23 -15 -18 -31 -27 -35 -22 -3 6 -22 13 -41 15 -32 5 -39 2
-84 -48 -41 -45 -47 -56 -36 -69 7 -9 21 -13 31 -10 29 10 56 -3 55 -26 -2
-41 -56 -46 -56 -5 0 11 -4 17 -8 11 -4 -5 -14 -10 -22 -10 -10 0 -16 -13 -18
-42 -2 -25 -8 -43 -15 -43 -7 0 -27 -16 -46 -35 -19 -19 -38 -35 -42 -35 -5 0
-9 -18 -9 -40 0 -36 -2 -40 -26 -40 -16 0 -24 5 -22 12 3 7 -10 24 -27 38 -26
21 -31 30 -24 48 5 12 5 22 1 22 -4 1 9 9 29 20 51 27 60 72 21 105 -22 20
-34 23 -67 18 l-40 -6 24 27 c14 14 35 26 47 26 19 0 25 8 34 40 12 45 42 70
82 70 16 0 28 5 28 10 0 6 15 10 34 10 25 0 38 6 51 26 15 23 21 26 56 20 24
-4 39 -2 39 4 0 5 -4 10 -10 10 -18 0 -11 35 10 48 28 17 25 29 -14 68 -26 26
-43 34 -69 34 -19 0 -45 8 -58 18 -40 31 -67 33 -88 6 -10 -13 -27 -24 -37
-24 -11 0 -25 -4 -33 -9 -11 -7 -8 -14 15 -35 16 -14 32 -26 36 -26 3 0 12
-16 18 -36 10 -30 9 -38 -4 -53 -9 -10 -16 -25 -16 -33 0 -21 -16 -32 -67 -47
-23 -6 -55 -23 -71 -36 -24 -20 -41 -25 -83 -25 -39 0 -50 -3 -39 -10 15 -10
7 -11 -120 -15 -26 -1 -35 -6 -34 -18 2 -22 -5 -21 -31 3 -20 19 -25 19 -51 8
-57 -25 -79 -54 -75 -98 l3 -41 -32 6 c-31 5 -69 38 -70 60 0 10 -89 55 -109
55 -11 0 -15 26 -11 65 2 25 62 83 68 66 2 -7 14 -24 26 -38 27 -31 46 -24 46
18 0 50 55 130 110 159 16 9 25 7 42 -10 33 -31 48 -26 38 11 -5 17 -14 37
-20 44 -7 8 -6 30 3 70 12 53 17 60 46 70 34 11 71 48 71 69 0 7 -4 6 -9 -2
-12 -19 -46 -10 -45 11 2 23 -35 23 -42 0 -17 -53 -28 -73 -39 -73 -21 0 -46
-37 -47 -69 -1 -35 -25 -49 -42 -25 -9 12 -35 17 -97 21 -46 2 -91 4 -99 3
-116 -7 -141 -13 -136 -27 3 -8 3 -19 0 -25 -8 -12 -33 21 -34 45 0 9 -6 17
-12 17 -7 1 -22 12 -33 26 -40 51 -55 61 -82 56 -18 -3 -30 1 -40 14 -9 13
-24 17 -49 16 -20 -2 -44 3 -53 11 -22 19 -60 27 -80 17 -9 -5 -24 -11 -33
-14 -9 -2 -18 -15 -20 -28 -2 -18 -10 -24 -36 -26 -18 -2 -36 -10 -39 -18 -9
-23 -52 -16 -78 12 -26 28 -33 54 -15 54 6 0 10 5 10 12 0 7 12 22 27 34 l27
21 -25 14 c-13 7 -46 13 -74 14 -43 0 -50 3 -51 20 -3 68 -3 67 -31 64 -16 -1
-39 1 -52 5 -18 6 -28 4 -37 -9 -11 -15 -10 -20 10 -36 13 -11 31 -19 38 -19
8 0 15 -7 15 -15 0 -8 -6 -15 -14 -15 -17 0 -17 -8 2 -26 8 -9 15 -22 15 -31
0 -26 -61 17 -85 62 -13 21 -29 41 -36 44 -8 2 -25 15 -38 27 -23 23 -61 33
-61 16 0 -4 -16 -14 -35 -21 -19 -7 -33 -16 -31 -20 3 -4 6 -36 7 -72 l2 -64
58 -56 c55 -53 72 -79 50 -79 -5 0 -19 13 -32 29 -19 25 -26 27 -56 21 -39 -9
-63 -27 -63 -46 0 -17 -46 -29 -63 -16 -6 5 -32 12 -57 15 -25 3 -55 9 -66 12
-17 5 -23 1 -32 -24 -15 -42 -71 -53 -112 -22 -16 11 -40 21 -54 21 -14 0 -28
5 -31 10 -3 6 -17 10 -29 10 -13 0 -29 7 -36 15 -15 18 -42 19 -58 3 -9 -9
-12 -9 -12 0 0 7 5 12 10 12 14 0 13 33 -2 48 -21 21 -40 13 -94 -38 -29 -27
-61 -50 -71 -50 -29 0 -63 12 -58 20 7 12 -48 4 -80 -11 -27 -13 -30 -19 -33
-70 -2 -37 2 -61 10 -70 23 -24 15 -69 -16 -96 -16 -13 -27 -25 -25 -26 2 -1
17 -9 33 -17 16 -8 31 -20 33 -26 6 -18 -38 -25 -54 -8 -8 8 -22 14 -32 14
-32 0 -61 42 -61 89 l0 43 -37 -6 c-21 -3 -48 -6 -60 -6 -14 0 -23 -6 -23 -15
0 -11 -8 -15 -26 -13 -29 3 -43 -18 -114 -159 -17 -35 -37 -63 -44 -63 -8 0
-36 -7 -62 -14 -27 -8 -62 -18 -77 -21 -21 -4 -27 -10 -23 -22 4 -9 -1 -24
-10 -34 -10 -11 -13 -19 -9 -19 4 0 -2 -8 -13 -19 -12 -10 -22 -21 -22 -25 0
-4 16 -20 35 -37 19 -17 38 -42 41 -55 3 -13 10 -24 15 -24 4 0 30 -20 57 -43
78 -70 123 -80 352 -80 122 0 200 -3 208 -10 7 -6 37 -11 67 -12 58 -2 79 -14
135 -78 33 -38 33 -38 17 -72 -10 -21 -12 -37 -7 -40 17 -11 11 -24 -15 -31
-19 -5 -35 1 -63 22 -20 16 -40 30 -44 30 -5 1 -11 2 -15 3 -4 0 1 7 12 14 12
10 14 16 7 21 -7 4 -17 4 -22 1 -6 -4 -31 1 -55 11 -48 18 -66 14 -45 -11 17
-21 5 -47 -22 -45 -39 4 -46 1 -53 -20 -4 -12 -15 -20 -29 -20 -15 0 -39 -18
-68 -50 -43 -48 -48 -50 -96 -50 -32 0 -72 9 -104 23 -48 21 -67 23 -205 22
-121 0 -153 2 -153 13 0 29 148 64 176 42 7 -7 24 -10 36 -7 14 4 29 0 41 -10
17 -16 19 -15 42 10 14 14 25 31 25 36 0 6 12 13 28 17 15 3 38 10 51 15 13 5
32 7 42 4 14 -5 22 1 30 19 10 22 8 29 -14 53 -15 15 -32 36 -39 45 -12 15
-18 16 -64 3 -29 -7 -65 -20 -81 -28 -33 -18 -63 -7 -63 23 0 24 -16 34 -63
36 -20 1 -49 10 -64 20 -55 40 -68 45 -108 39 -21 -3 -44 -10 -51 -16 -8 -7
-14 -6 -19 1 -3 6 -11 8 -16 5 -5 -4 -9 -1 -9 6 0 7 -3 9 -7 5 -5 -4 -8 -27
-8 -49 0 -36 -3 -42 -22 -45 -13 -2 -23 1 -23 6 0 14 -54 36 -58 23 -2 -6 -10
-11 -19 -11 -26 0 -58 -33 -55 -58 3 -20 0 -22 -51 -22 -65 0 -120 -17 -113
-35 3 -8 -11 -19 -36 -28 -34 -14 -39 -19 -33 -39 16 -52 116 -128 169 -128
19 0 53 7 76 15 73 26 118 20 182 -24 57 -40 95 -54 181 -66 45 -6 106 -34
135 -62 9 -9 7 -13 -10 -19 -13 -4 -26 -11 -30 -17 -9 -14 -106 -26 -137 -16
-14 4 -66 15 -116 24 l-89 17 -18 -22 c-11 -14 -18 -39 -18 -65 0 -30 -6 -47
-20 -60 -12 -11 -20 -28 -18 -39 3 -18 12 -22 63 -26 33 -3 66 -9 72 -13 7 -5
31 3 58 18 47 26 92 32 123 16 36 -19 149 -33 171 -22 15 8 27 9 41 1 40 -21
50 -78 12 -66 -22 7 -49 -9 -33 -18 6 -4 11 -28 11 -53 l0 -46 -19 24 c-25 33
-35 67 -22 83 8 10 2 16 -27 25 -66 21 -135 29 -159 20 -14 -5 -51 -9 -84 -9
-54 0 -60 -2 -69 -25 -5 -14 -11 -25 -12 -25 -2 0 -19 5 -38 11 -19 6 -52 12
-72 13 -20 2 -44 11 -53 20 -9 9 -27 19 -41 22 -13 3 -24 10 -24 15 0 5 -26 6
-58 3 -47 -5 -63 -3 -92 14 -34 21 -35 21 -60 2 l-25 -19 24 -9 25 -9 -29 -7
c-21 -5 -32 -3 -41 8 -15 22 -27 20 -19 -3 9 -28 -16 -43 -48 -28 -19 8 -31
24 -37 49 -6 20 -15 40 -21 43 -5 4 -21 24 -35 46 -13 21 -28 39 -33 39 -12 0
-81 67 -81 79 0 17 -11 13 -36 -15 l-24 -25 0 -830 0 -829 9600 0 9600 0 0
5400 0 5400 -4424 0 -4423 0 -13 -59 c-8 -40 -10 -88 -5 -144 5 -61 3 -90 -6
-105 -10 -16 -10 -32 1 -81 11 -51 20 -69 57 -106 25 -24 57 -49 73 -55 17 -7
33 -24 39 -41 7 -19 17 -29 30 -29 14 0 21 -7 21 -20 0 -10 18 -33 40 -51 22
-18 37 -36 34 -40 -10 -17 57 -77 93 -84 23 -4 37 -13 40 -26 3 -10 11 -19 18
-19 7 0 15 -13 19 -30 3 -18 12 -30 21 -30 10 0 15 -10 15 -29 0 -26 4 -29 45
-35 58 -9 135 2 135 19 0 14 46 55 62 55 6 0 12 -9 15 -19 3 -11 16 -22 29
-25 17 -5 24 -13 24 -31 0 -13 5 -27 11 -30 6 -4 8 -13 5 -21 -3 -8 -1 -14 5
-14 6 0 9 -6 6 -14 -3 -7 1 -24 10 -36 12 -17 13 -30 5 -59 -10 -39 -11 -80
-1 -96 4 -5 10 -29 14 -53 4 -23 12 -42 18 -41 45 5 49 -3 62 -143 1 -11 -5
-18 -15 -18 -10 0 -33 -6 -52 -14 -27 -12 -34 -20 -36 -47 -2 -18 -8 -37 -15
-41 -9 -5 -7 -12 7 -25 13 -13 20 -15 23 -5 6 16 32 15 39 -2 3 -8 15 -11 30
-8 14 2 24 0 24 -7 0 -6 -5 -11 -10 -11 -6 0 1 -12 16 -27 22 -22 29 -24 45
-15 10 7 30 12 44 12 17 0 32 10 47 34 20 31 25 33 63 28 22 -2 42 -6 43 -8 2
-1 5 -31 6 -66 0 -35 4 -67 7 -73 3 -5 0 -26 -7 -45 -7 -19 -14 -28 -15 -20
-1 8 -5 -12 -10 -45 -6 -39 -5 -61 1 -63 6 -2 10 -13 10 -23 0 -13 -4 -18 -12
-13 -7 4 -8 3 -4 -4 4 -6 2 -20 -4 -31 -7 -14 -6 -23 3 -33 8 -7 12 -19 9 -26
-2 -6 12 -31 32 -54 39 -45 45 -80 20 -105 -10 -11 -13 -24 -9 -42 9 -34 12
-36 28 -23 8 7 17 9 20 5 4 -3 14 0 23 8 14 11 18 11 29 -4 7 -10 19 -15 27
-12 9 4 18 -1 22 -10 3 -10 12 -15 21 -11 8 3 17 1 20 -4 3 -5 13 -6 23 -3 9
3 14 2 9 -2 -4 -5 16 -15 45 -22 29 -8 62 -23 73 -33 12 -11 31 -20 42 -20 11
0 27 -7 34 -16 8 -9 30 -27 50 -40 65 -41 141 -121 148 -156 6 -28 12 -33 36
-35 58 -3 155 -44 155 -64 0 -4 18 -10 40 -14 31 -5 44 -14 56 -37 11 -20 20
-28 31 -23 9 3 20 0 24 -6 4 -7 12 -8 20 -3 8 4 26 7 41 5 31 -3 71 16 63 30
-4 5 3 9 14 9 12 0 21 6 21 13 0 8 3 7 10 -3 12 -19 20 -10 24 25 5 43 45 59
141 57 45 -2 82 -7 86 -14 4 -6 14 -8 22 -5 8 3 23 -1 34 -8 10 -8 14 -15 9
-15 -13 0 53 -49 82 -61 12 -5 22 -13 22 -18 0 -5 14 -12 30 -16 17 -4 30 -11
30 -17 0 -6 6 -8 14 -5 8 3 16 -2 19 -14 3 -11 11 -17 19 -14 8 3 18 -7 26
-27 35 -87 59 -123 90 -137 25 -11 32 -21 32 -42 0 -18 11 -40 31 -60 17 -18
36 -44 43 -58 6 -15 19 -26 30 -26 48 0 112 -142 107 -238 -2 -54 -28 -77 -95
-86 -47 -6 -58 -5 -66 8 -7 12 -9 3 -10 -31 0 -25 -5 -48 -10 -50 -18 -6 32
-134 61 -158 14 -11 20 -54 24 -166 3 -99 7 -122 24 -145 12 -16 21 -39 21
-52 0 -16 9 -28 25 -35 14 -7 25 -20 25 -31 0 -11 5 -23 10 -26 6 -3 10 -15
10 -25 0 -11 9 -24 20 -30 17 -9 25 -6 50 22 19 20 30 43 30 61 0 31 13 61 40
89 14 15 21 16 49 7 23 -8 29 -15 22 -22 -15 -15 -14 -83 3 -115 25 -48 20
-112 -8 -112 -15 0 -69 -117 -61 -130 4 -6 -1 -7 -12 -3 -15 5 -16 3 -5 -8 22
-24 13 -33 -12 -10 -23 21 -24 21 -55 4 -25 -14 -30 -23 -26 -40 5 -20 2 -22
-30 -21 -43 2 -64 -14 -47 -35 7 -7 14 -30 16 -51 3 -20 8 -41 11 -46 3 -5 1
-19 -5 -30 -14 -26 -4 -61 16 -53 10 4 14 -2 14 -20 0 -32 -19 -45 -35 -24 -7
10 -22 17 -33 17 -12 0 -25 8 -31 17 -8 14 -12 15 -25 4 -9 -7 -16 -23 -15
-35 0 -28 -17 -127 -27 -150 -6 -16 -15 -17 -89 -11 -56 4 -85 3 -90 -4 -8
-14 -39 1 -80 40 -16 15 -47 35 -67 44 -29 11 -38 21 -38 39 0 44 -78 86 -129
68 -24 -9 -32 -7 -46 8 -16 18 -19 18 -61 1 -27 -10 -52 -29 -63 -47 -19 -31
-46 -36 -120 -19 -20 4 -42 1 -62 -9 -18 -9 -34 -16 -35 -16 -2 0 -26 22 -54
50 -27 27 -62 53 -77 56 -16 4 -45 15 -65 25 -21 11 -46 19 -58 19 -11 0 -50
13 -86 30 -37 16 -70 27 -75 24 -5 -3 -13 6 -19 20 -13 35 -81 78 -116 74 -25
-3 -29 1 -36 37 -6 25 -5 49 2 63 14 32 13 77 -3 91 -8 6 -17 8 -20 4 -4 -3
-7 4 -7 16 0 26 25 38 44 22 7 -6 31 -13 52 -15 22 -2 68 -15 104 -28 36 -13
72 -23 81 -23 14 0 61 36 121 92 10 9 15 20 12 24 -6 11 29 29 56 29 13 0 24
-8 27 -19 5 -21 52 -35 67 -20 17 16 29 10 23 -11 -6 -24 -8 -24 32 -4 18 9
35 24 38 33 11 28 55 81 68 81 6 0 20 9 30 20 22 24 35 26 35 5 0 -22 17 -18
30 6 10 17 17 19 54 14 38 -6 46 -4 59 16 10 13 31 24 53 28 35 6 39 9 51 56
7 28 13 56 13 63 0 15 -35 29 -89 36 -21 3 -61 15 -88 27 -110 50 -137 59
-177 59 -23 0 -47 -5 -53 -11 -6 -6 -21 -9 -34 -7 -18 2 -25 11 -29 33 -4 24
-11 31 -33 33 -19 2 -29 10 -33 28 -3 13 -13 24 -21 24 -30 0 -5 25 28 27 89
7 97 11 101 60 2 24 1 48 -2 51 -15 20 -90 61 -121 66 -33 6 -39 3 -62 -28
-46 -60 -50 -76 -29 -121 24 -48 19 -63 -21 -69 -18 -3 -54 -9 -82 -13 -40 -7
-59 -5 -97 11 -25 11 -52 29 -58 42 -13 24 -50 44 -80 44 -10 0 -20 3 -22 8
-2 4 -37 39 -78 77 -91 84 -121 124 -126 166 -5 37 -20 59 -43 59 -9 0 -36 7
-60 16 -33 11 -46 12 -51 3 -11 -18 -51 -1 -92 40 -20 20 -50 48 -67 62 -30
26 -31 28 -17 60 15 35 23 43 69 59 15 5 27 17 27 27 0 9 10 27 21 40 20 20
20 23 5 29 -9 3 -16 17 -16 31 0 35 -58 106 -81 100 -23 -6 -26 18 -3 27 10 4
14 12 10 22 -4 11 -2 15 8 11 23 -9 39 19 33 58 -3 19 -2 35 3 35 10 0 18 67
10 81 -5 7 -15 6 -34 -1 -42 -16 -73 -13 -73 8 0 9 4 20 9 23 5 3 12 31 15 63
6 62 9 65 47 68 17 2 26 8 26 20 0 29 -1 33 -10 31 -15 -4 -18 22 -4 35 9 8
14 9 14 2 0 -6 11 -3 25 7 24 18 28 44 12 71 -5 6 -6 16 -3 21 7 11 -18 21
-55 21 -21 0 -27 4 -23 15 7 18 -12 20 -23 3 -4 -7 -8 -22 -8 -33 0 -14 -6
-19 -17 -17 -15 2 -18 -5 -18 -51 0 -29 -6 -61 -12 -70 -12 -16 -18 -15 -80
10 -37 16 -68 33 -68 39 0 7 -9 14 -21 17 -12 3 -18 10 -15 16 7 11 -38 27
-66 23 -9 -2 -19 2 -22 7 -4 6 -13 8 -20 5 -8 -3 -31 6 -53 20 -21 13 -58 33
-83 42 -25 10 -48 22 -52 28 -4 6 -10 7 -14 4 -3 -4 -22 12 -40 35 -56 69
-113 127 -125 127 -5 0 -7 5 -4 10 3 6 -1 10 -9 10 -9 0 -16 5 -16 10 0 6 -16
18 -35 27 -19 9 -35 22 -35 27 0 19 -62 39 -124 40 -57 1 -61 3 -64 26 -5 36
-31 63 -49 49 -8 -7 -13 -7 -13 -2 0 6 -18 13 -39 17 -22 3 -41 11 -43 16 -2
6 -43 12 -92 14 -49 3 -92 9 -95 14 -11 18 -80 23 -115 8 -18 -8 -53 -17 -77
-21 -24 -4 -50 -12 -56 -17 -9 -7 -15 -5 -19 6 -3 9 -10 13 -15 10 -5 -3 -29
-2 -53 1 -38 6 -47 12 -61 41 -18 38 -57 69 -112 88 -44 15 -59 12 -93 -19
-14 -13 -49 -31 -78 -41 -30 -9 -59 -25 -65 -35 -7 -11 -18 -19 -25 -19 -7 0
-17 -11 -22 -25 -5 -14 -15 -25 -21 -25 -8 0 -8 -4 1 -15 10 -12 9 -16 -5 -21
-10 -4 -20 -1 -25 6 -4 7 -32 15 -61 17 -34 3 -59 11 -67 22 -9 11 -15 12 -20
5 -4 -6 -49 -16 -100 -22 -99 -12 -116 -17 -106 -34 11 -18 -19 -28 -66 -22
-44 7 -89 31 -90 48 0 5 -18 24 -40 43 -22 19 -40 43 -40 52 0 20 -30 51 -48
51 -7 0 -12 4 -12 8 0 14 -51 33 -71 27 -12 -4 -23 2 -35 20 -9 14 -39 37 -66
51 -29 15 -57 39 -72 62 -33 53 -155 156 -218 184 -22 10 -37 21 -34 26 5 9
-90 62 -110 62 -6 0 -22 13 -35 29 -13 15 -34 33 -47 40 -21 11 -112 176 -112
203 0 7 -23 59 -50 116 -28 57 -50 111 -50 119 0 9 -4 30 -9 47 -12 38 -38
158 -46 210 -8 51 -27 78 -77 111 -63 42 -103 87 -122 137 -18 45 -78 98 -112
98 -8 0 -29 22 -46 50 -18 27 -39 50 -45 50 -14 0 -17 16 -14 73 l3 37 -3636
0 -3636 0 2 -3187z m11203 1998 c3 -5 1 -12 -5 -16 -5 -3 -10 1 -10 9 0 18 6
21 15 7z m-11 -426 c-7 -16 -24 -21 -24 -6 0 8 7 13 27 20 1 1 0 -6 -3 -14z
m-2594 -125 c0 -5 -4 -10 -9 -10 -6 0 -13 5 -16 10 -3 6 1 10 9 10 9 0 16 -4
16 -10z m1380 -640 c14 -10 24 -25 22 -34 -2 -10 2 -14 12 -10 8 3 17 1 21 -5
3 -6 15 -11 26 -11 10 0 19 -4 19 -10 0 -5 -9 -10 -20 -10 -23 0 -41 -31 -22
-38 7 -2 12 -8 12 -13 0 -14 -28 -11 -33 4 -4 9 -8 9 -15 -2 -7 -10 -20 -12
-46 -7 -21 4 -77 7 -126 7 -89 0 -90 0 -90 25 0 32 -24 41 -55 20 -30 -20 -35
-20 -35 -1 0 8 9 19 20 25 15 8 19 17 14 34 -5 21 0 25 53 39 76 19 207 13
243 -13z m236 -126 c8 -10 36 -14 97 -14 92 0 107 -8 107 -59 0 -12 7 -21 16
-21 8 0 13 -4 10 -8 -10 -17 -80 -1 -151 35 -41 21 -163 52 -202 53 -42 0 -42
11 0 30 36 17 103 8 123 -16z m125 -270 c17 -15 23 -15 63 -2 40 13 49 13 76
0 16 -8 31 -17 31 -21 10 -47 8 -49 -60 -53 -66 -5 -101 6 -101 29 0 7 -4 13
-10 13 -5 0 -10 -7 -10 -16 0 -9 -5 -12 -11 -8 -7 4 -10 1 -7 -7 3 -9 -7 -18
-26 -25 -24 -8 -30 -16 -28 -32 2 -12 -2 -22 -8 -22 -6 0 -32 -17 -57 -37
l-45 -38 5 -67 c4 -65 3 -69 -27 -102 -51 -56 -57 -66 -50 -77 11 -18 30 -113
26 -131 -2 -9 -9 -18 -17 -20 -11 -2 -11 -7 2 -23 10 -13 17 -16 20 -8 2 7 10
10 18 7 7 -3 20 4 28 16 9 12 20 19 26 16 5 -4 26 3 46 14 33 19 38 19 65 5
17 -9 30 -13 30 -9 0 4 7 1 15 -6 16 -13 14 -27 -7 -83 -11 -27 -13 -28 -62
-24 -86 9 -118 19 -123 38 -5 17 -37 19 -52 3 -3 -4 2 -4 12 -1 19 7 20 6 11
-17 -3 -9 -10 -13 -15 -10 -5 3 -9 1 -9 -4 0 -15 -41 -2 -47 15 -3 7 0 19 6
27 9 11 6 15 -19 18 -24 4 -30 1 -30 -14 0 -19 -15 -24 -25 -8 -13 20 -25 9
-25 -22 1 -28 3 -31 13 -18 7 9 22 16 35 17 20 2 23 -2 20 -25 -2 -22 -11 -30
-48 -42 -63 -21 -72 -28 -64 -52 4 -15 -4 -30 -31 -58 -21 -21 -47 -41 -59
-44 -11 -3 -31 -21 -44 -41 -26 -41 -54 -45 -70 -10 -10 22 -18 25 -68 25 -41
0 -64 -6 -85 -21 -27 -19 -28 -22 -14 -33 21 -15 9 -47 -16 -43 -10 2 -27 11
-37 20 -23 21 -28 21 -36 1 -3 -8 -2 -13 3 -10 5 3 14 0 19 -7 8 -10 6 -13
-11 -14 -37 -3 -49 16 -42 67 6 43 4 48 -19 64 -16 10 -26 26 -26 40 0 36 -30
66 -75 73 -22 4 -46 13 -53 20 -9 9 -25 11 -48 7 -31 -6 -38 -2 -72 33 -35 36
-68 57 -135 82 -22 8 -35 8 -56 -4 -16 -8 -31 -12 -34 -9 -3 3 -8 1 -12 -5 -3
-6 0 -11 7 -11 20 0 68 -24 68 -33 0 -5 -5 -5 -11 -2 -13 9 -144 9 -157 1 -5
-3 -34 0 -63 6 -77 16 -130 2 -141 -37 -15 -49 -31 -75 -45 -75 -7 0 -13 5
-13 10 0 17 -50 -1 -76 -27 -13 -13 -24 -32 -24 -42 0 -38 -30 -89 -65 -109
l-35 -21 6 -63 c8 -96 11 -104 44 -118 18 -7 30 -20 30 -31 0 -10 9 -23 19
-29 11 -6 22 -25 26 -48 7 -43 37 -78 109 -131 25 -18 46 -39 46 -46 0 -15 22
-25 53 -25 24 -1 60 -24 51 -32 -3 -3 6 -22 20 -42 22 -32 23 -41 14 -64 -7
-15 -15 -31 -20 -36 -15 -19 -8 -48 17 -68 14 -11 22 -24 19 -30 -4 -6 2 -8
16 -3 14 5 20 3 16 -3 -4 -7 4 -8 21 -3 16 4 28 12 28 18 0 6 2 14 5 16 3 3 6
-15 8 -41 1 -25 7 -51 13 -59 9 -10 7 -13 -9 -13 -12 0 -24 5 -27 11 -4 6 -13
8 -21 5 -8 -3 -14 1 -14 9 0 8 -3 14 -7 14 -5 -1 -10 0 -13 1 -3 1 -16 3 -30
4 -36 4 -60 16 -60 32 0 8 -5 14 -12 14 -9 0 -9 3 0 12 17 17 15 28 -7 28 -37
0 -51 11 -45 35 4 16 -2 30 -21 49 -14 14 -30 26 -34 26 -14 0 -33 -28 -26
-39 3 -6 0 -8 -9 -5 -17 7 -36 -24 -36 -60 0 -16 -6 -26 -15 -26 -8 0 -12 -6
-9 -15 3 -8 1 -29 -5 -48 -12 -35 -1 -91 13 -69 14 22 56 -17 56 -52 1 -26 2
-28 11 -13 12 20 49 23 49 3 0 -16 42 -30 50 -16 12 19 46 -3 65 -42 10 -22
25 -43 32 -45 10 -4 8 -13 -7 -38 -11 -19 -20 -50 -20 -73 0 -33 -3 -40 -15
-36 -12 5 -15 -2 -15 -32 0 -34 1 -36 13 -20 12 17 14 17 20 2 7 -17 37 -23
37 -7 0 5 10 11 23 13 12 2 21 9 19 16 -4 22 20 92 32 92 13 0 15 -69 2 -88
-6 -11 0 -12 30 -6 34 6 37 5 29 -12 -18 -46 -23 -87 -12 -105 13 -21 37 -26
37 -8 0 7 11 9 26 6 23 -4 25 -2 19 22 l-7 26 21 -24 c12 -13 24 -21 29 -16 4
4 1 10 -5 12 -18 6 -16 30 2 37 10 4 15 -1 15 -14 0 -11 5 -20 11 -20 19 0 36
-25 43 -63 4 -20 12 -37 19 -37 7 0 6 -4 -3 -10 -12 -8 -12 -10 2 -15 13 -5
15 -12 9 -28 -6 -15 -4 -26 5 -35 18 -16 25 -15 18 3 -4 8 -1 15 5 15 6 0 11
-7 11 -15 0 -9 7 -18 15 -21 8 -4 12 -10 9 -15 -3 -6 5 -7 20 -3 16 4 32 1 41
-6 10 -9 19 -9 28 -2 13 10 31 5 81 -26 34 -21 63 -94 48 -126 -5 -12 -7 -35
-5 -52 3 -20 -2 -42 -13 -59 -23 -35 -20 -84 6 -102 12 -9 20 -26 20 -44 0
-16 6 -45 14 -64 17 -41 13 -46 -27 -34 -41 12 -42 12 -27 -6 7 -8 13 -39 14
-68 1 -51 2 -52 33 -55 24 -2 34 -10 44 -34 11 -27 10 -32 -7 -45 -17 -12 -19
-12 -22 1 -5 22 -51 32 -74 17 -16 -10 -24 -9 -43 3 -14 9 -31 16 -39 16 -18
0 -66 60 -66 82 0 9 -7 32 -15 52 -14 34 -18 36 -61 36 -25 0 -54 5 -65 10
-30 17 -90 22 -105 9 -8 -6 -20 -9 -29 -6 -17 7 -82 -18 -109 -41 -10 -10 -21
-17 -25 -16 -3 0 -19 -5 -36 -12 -27 -11 -32 -10 -50 11 -11 12 -30 25 -42 28
-18 4 -24 -1 -33 -29 -14 -41 -25 -43 -42 -6 -11 22 -21 28 -56 30 -35 3 -46
-1 -67 -24 l-24 -26 -17 35 c-16 34 -20 36 -80 42 -78 9 -137 -1 -160 -26 -15
-17 -16 -22 -4 -45 12 -22 12 -27 0 -35 -8 -5 -26 -7 -39 -4 -13 4 -27 1 -31
-5 -3 -6 -40 -11 -81 -13 -42 -1 -80 -7 -87 -14 -23 -22 -52 -16 -49 10 2 20
-2 22 -50 22 -45 -1 -53 2 -53 17 0 31 30 68 56 68 21 0 24 5 23 33 0 27 -2
29 -9 12 -8 -19 -9 -19 -9 2 -1 12 -7 23 -13 26 -8 2 -13 23 -14 53 -1 53 -14
93 -37 112 -17 15 -139 13 -149 -2 -6 -8 -11 -7 -16 1 -6 9 -17 10 -41 3 -18
-5 -36 -9 -40 -8 -3 0 -34 0 -68 -1 -49 -1 -63 -4 -63 -16 0 -8 -6 -15 -14
-15 -8 0 -21 -13 -29 -29 -10 -21 -11 -28 -3 -25 14 5 36 -36 36 -66 0 -12 7
-20 16 -20 24 0 12 -35 -14 -38 -12 -2 -22 1 -22 7 0 20 -40 51 -65 51 -17 0
-40 15 -68 43 -23 24 -50 47 -59 50 -26 9 -22 42 7 65 30 24 31 33 5 50 -11 7
-20 16 -20 22 0 5 -12 26 -26 47 -21 31 -32 39 -67 43 -35 4 -46 1 -65 -18
-20 -21 -21 -25 -8 -43 21 -30 6 -75 -24 -71 -48 5 -89 33 -96 65 -8 40 -18
46 -64 40 -32 -5 -38 -2 -45 18 -5 13 -9 38 -9 54 -1 19 -6 30 -16 31 -8 0
-22 4 -30 7 -8 3 -22 8 -30 10 -12 5 -12 6 1 6 10 1 19 13 22 31 5 20 11 28
21 24 17 -7 30 11 22 31 -4 12 -10 13 -31 3 -14 -6 -25 -18 -25 -26 0 -8 -6
-12 -13 -9 -7 3 -21 -1 -32 -9 -24 -18 -56 -18 -80 0 -17 12 -18 17 -7 41 9
19 17 25 31 20 11 -3 22 -2 25 4 7 11 -20 77 -35 87 -9 5 -8 10 3 18 29 21 49
75 46 124 -3 53 20 115 40 107 21 -8 62 13 62 33 0 10 -11 29 -25 42 -14 13
-23 30 -21 37 3 7 -1 13 -9 13 -8 0 -15 5 -15 10 0 11 24 13 56 4 15 -4 21
-14 21 -35 0 -48 19 -59 90 -50 34 4 61 5 61 2 -2 -19 4 -24 12 -11 7 11 10
11 10 2 0 -7 5 -10 10 -7 6 4 47 8 90 10 87 4 100 8 100 33 0 9 7 26 15 36 8
11 15 27 15 36 0 19 50 94 57 86 3 -3 15 0 26 6 31 16 108 14 121 -4 16 -20
66 -8 99 26 15 15 32 24 39 20 8 -5 9 -2 3 12 -15 36 -17 86 -5 125 7 22 17
39 22 39 13 0 9 29 -8 55 -18 27 -27 76 -27 153 0 44 4 57 28 82 16 17 39 30
51 30 24 0 47 35 59 89 3 17 14 33 24 36 10 3 26 14 36 25 10 11 27 20 37 20
12 0 24 13 34 36 14 34 18 36 50 31 32 -5 34 -4 34 23 0 37 34 94 86 146 34
33 41 46 37 68 -5 23 3 35 53 81 33 30 67 55 76 55 9 0 20 5 23 10 3 6 15 10
26 10 10 0 19 7 19 15 0 8 12 25 26 38 26 24 45 78 48 134 2 59 83 100 125 64
13 -12 36 -22 50 -22 82 -4 131 -3 131 3 0 3 24 18 54 33 60 29 102 30 100 3
-1 -10 10 -21 27 -27 16 -5 29 -17 29 -25 0 -9 8 -16 18 -16 20 0 62 -27 62
-40 0 -4 -8 -6 -19 -3 -10 3 -22 0 -25 -6 -4 -6 0 -11 8 -11 19 0 21 -14 3
-28 -15 -13 -43 1 -33 17 5 7 1 9 -8 5 -11 -4 -16 0 -16 10 0 9 -8 16 -21 16
-11 0 -17 -4 -14 -10 3 -5 -1 -10 -9 -10 -9 0 -16 -9 -16 -20 0 -11 -4 -20
-10 -20 -5 0 -10 -10 -10 -22 0 -20 1 -21 20 -3 11 10 17 22 14 26 -8 13 10
11 24 -3 18 -18 15 -28 -10 -29 l-23 0 22 -9 c12 -5 40 -7 62 -5 22 2 43 1 45
-4 3 -5 17 -6 31 -3 19 3 23 7 15 17 -6 7 -15 26 -19 42 -7 24 -5 32 10 41 26
16 34 15 19 -3 -7 -9 -10 -18 -7 -21 3 -4 26 15 51 41 30 33 52 48 70 48 15 0
26 5 26 13 0 16 88 60 112 56 9 -2 22 6 28 18 9 17 17 20 40 15 17 -4 38 -1
52 7 22 12 28 14 54 17 7 0 14 10 17 21 3 12 14 20 26 20 13 0 29 12 41 32 18
30 24 33 76 34 47 2 61 6 74 24 10 14 19 18 21 11 3 -8 17 -5 44 9 25 13 50
19 67 16 18 -4 30 0 36 10 5 8 25 17 46 19 21 2 43 8 49 14 13 13 57 14 76 2
19 -12 50 4 79 39 19 24 20 33 12 56 -14 35 -6 42 55 47 28 2 57 6 65 10 37
14 154 33 214 36 24 0 46 -5 57 -15z m-37 -404 c12 -12 -21 -26 -76 -34 -39
-6 -48 -4 -48 8 0 30 28 44 72 39 24 -3 47 -9 52 -13z m-1274 -340 c0 -5 -2
-10 -4 -10 -3 0 -8 5 -11 10 -3 6 -1 10 4 10 6 0 11 -4 11 -10z m1700 -11 c7
-11 9 -23 6 -26 -3 -3 1 -11 9 -17 10 -8 12 -16 5 -26 -7 -10 -10 -11 -10 -2
0 8 -8 10 -24 6 -28 -7 -38 12 -29 56 6 35 27 39 43 9z m-1990 1 c0 -5 -9 -10
-21 -10 -11 0 -17 5 -14 10 3 6 13 10 21 10 8 0 14 -4 14 -10z m345 -12 c-1
-13 -5 -22 -8 -20 -4 1 -11 2 -17 2 -17 0 -11 28 8 33 9 3 17 5 18 6 0 0 0 -9
-1 -21z m1739 -17 c3 -5 -1 -11 -9 -14 -9 -4 -12 -1 -8 9 6 16 10 17 17 5z
m-1638 -39 c-3 -2 -14 -1 -26 3 -17 6 -19 9 -9 22 11 13 14 13 26 -3 7 -10 11
-19 9 -22z m-548 6 c-2 -17 -11 -24 -32 -26 -16 -2 -33 1 -38 6 -14 14 19 42
48 42 21 0 25 -4 22 -22z m2137 -48 c3 -5 -1 -10 -9 -10 -9 0 -16 5 -16 10 0
6 4 10 9 10 6 0 13 -4 16 -10z m-2270 -50 c-3 -5 -10 -10 -16 -10 -5 0 -9 5
-9 10 0 6 7 10 16 10 8 0 12 -4 9 -10z m173 -122 c-3 -7 -13 -15 -24 -17 -16
-3 -17 -1 -5 13 16 19 34 21 29 4z m3772 -108 c12 -8 9 -10 -12 -10 -15 0 -30
5 -33 10 -8 13 25 13 45 0z m-2730 -10 c0 -5 -4 -10 -10 -10 -5 0 -10 5 -10
10 0 6 5 10 10 10 6 0 10 -4 10 -10z m1456 -4 c8 -8 14 -21 14 -29 0 -27 22
-77 34 -77 6 0 18 -9 26 -19 7 -11 17 -18 22 -15 14 9 9 -35 -7 -66 -9 -17
-22 -30 -29 -30 -29 0 -46 13 -46 34 0 12 -14 35 -31 52 -47 45 -53 69 -28
120 23 49 25 50 45 30z m2912 -225 c28 -1 32 -4 32 -30 0 -27 -2 -29 -60 -35
-33 -4 -62 -11 -64 -15 -7 -11 -64 -12 -71 -1 -3 5 -1 11 5 15 7 4 7 12 0 25
-16 30 23 49 95 44 17 -1 45 -2 63 -3z m290 -48 c3 -35 -1 -44 -20 -56 -42
-27 -63 -28 -92 -6 -26 20 -26 21 -9 51 19 33 66 59 98 55 16 -2 21 -11 23
-44z m-2696 -22 c52 -29 53 -31 50 -70 -3 -32 0 -41 13 -41 11 0 14 -7 11 -22
-3 -13 -8 -58 -11 -101 -5 -53 -11 -77 -18 -74 -7 2 -11 18 -10 34 3 37 -42
88 -53 59 -3 -9 -3 -23 0 -32 3 -9 -1 -25 -9 -37 -8 -12 -15 -39 -15 -60 0
-21 -7 -52 -17 -67 -16 -28 -17 -28 -49 -13 -28 14 -32 20 -29 46 3 23 -4 36
-35 66 -35 33 -40 35 -46 19 -3 -10 -21 -35 -40 -55 -33 -35 -35 -41 -29 -82
4 -24 9 -50 12 -57 6 -17 30 -18 36 -1 2 6 8 9 13 4 4 -4 1 -14 -7 -23 -14
-13 -19 -13 -45 1 -16 8 -35 15 -41 15 -8 0 -13 13 -13 29 0 17 -4 32 -9 35
-5 3 -7 16 -4 27 4 14 0 25 -11 31 -9 5 -16 18 -16 28 0 16 -7 20 -35 20 -19
0 -35 4 -35 9 0 11 114 19 118 9 6 -13 42 -9 43 5 3 42 0 110 -5 115 -4 3 -12
0 -18 -6 -7 -7 -20 -12 -30 -12 -10 0 -19 -6 -19 -12 -1 -7 -2 -17 -4 -23 -1
-5 -3 -18 -3 -27 -2 -13 -11 -18 -31 -18 -51 0 -61 9 -60 54 0 32 2 37 9 21 8
-18 9 -18 9 -2 1 14 6 17 21 12 12 -4 27 -1 35 5 22 18 19 67 -5 80 -23 13
-27 48 -5 56 11 5 12 11 5 24 -6 10 -10 23 -10 29 0 16 70 13 76 -3 8 -21 121
-18 160 5 19 10 36 14 44 9 8 -5 22 -3 34 6 25 17 16 19 78 -15z m-1837 -96
c14 -13 25 -29 25 -34 0 -6 12 -17 28 -25 15 -8 22 -15 17 -16 -6 0 -11 -12
-10 -27 0 -26 3 -28 52 -33 l51 -5 -34 -50 c-38 -56 -43 -98 -18 -146 21 -42
15 -73 -16 -77 -14 -2 -31 -9 -38 -14 -21 -18 -61 11 -83 59 -24 53 -24 65 2
81 15 10 19 21 17 45 -3 28 -7 32 -35 35 -24 2 -37 11 -50 33 -10 16 -21 29
-25 29 -4 0 -8 6 -8 14 0 19 -24 27 -58 20 -25 -5 -28 -10 -24 -35 5 -35 -10
-38 -32 -5 -13 20 -13 31 -4 58 15 44 16 45 73 52 33 4 56 14 68 27 11 14 17
17 18 8 0 -8 5 -4 11 9 14 29 43 28 73 -3z m-3124 -232 c12 -15 12 -16 -4 -10
-10 4 -23 7 -28 7 -5 0 -9 5 -9 10 0 16 26 12 41 -7z m7075 -17 c18 -14 18
-15 1 -21 -9 -4 -24 -2 -32 5 -33 28 -5 42 31 16z m-5099 -58 c-3 -8 -6 -5 -6
6 -1 11 2 17 5 13 3 -3 4 -12 1 -19z m3303 2 c0 -5 -5 -10 -11 -10 -5 0 -7 5
-4 10 3 6 8 10 11 10 2 0 4 -4 4 -10z m1928 -35 c-3 -3 -9 2 -12 12 -6 14 -5
15 5 6 7 -7 10 -15 7 -18z m-4928 -75 c0 -5 -4 -10 -10 -10 -5 0 -10 5 -10 10
0 6 5 10 10 10 6 0 10 -4 10 -10z m-2113 -62 c-3 -8 -6 -5 -6 6 -1 11 2 17 5
13 3 -3 4 -12 1 -19z m2058 -28 c3 -5 1 -10 -4 -10 -6 0 -11 5 -11 10 0 6 2
10 4 10 3 0 8 -4 11 -10z m-65 -122 c0 -16 -3 -19 -11 -11 -6 6 -8 16 -5 22
11 17 16 13 16 -11z m-3580 -93 c0 -8 -7 -15 -15 -15 -9 0 -12 6 -9 15 4 8 10
15 15 15 5 0 9 -7 9 -15z m3845 -195 c3 -5 -1 -10 -9 -10 -9 0 -16 5 -16 10 0
6 4 10 9 10 6 0 13 -4 16 -10z m-2645 -70 c0 -5 -14 -10 -31 -10 -17 0 -28 4
-24 10 3 6 17 10 31 10 13 0 24 -4 24 -10z m1228 -369 c3 -8 -1 -12 -9 -9 -7
2 -15 10 -17 17 -3 8 1 12 9 9 7 -2 15 -10 17 -17z m-284 -147 c3 -8 2 -12 -4
-9 -6 3 -10 10 -10 16 0 14 7 11 14 -7z m5171 -454 c19 0 39 -8 49 -19 17 -18
17 -20 -1 -30 -17 -10 -17 -12 -2 -24 15 -11 15 -16 3 -47 -24 -57 -64 -91
-64 -55 0 14 -3 14 -30 0 -22 -11 -30 -23 -30 -43 0 -32 -56 -77 -84 -66 -11
4 -27 -2 -44 -18 -15 -14 -33 -27 -41 -30 -14 -4 8 -23 105 -92 l26 -19 -31
-13 c-30 -12 -43 -34 -20 -34 19 0 -2 -41 -39 -79 -21 -20 -45 -55 -56 -78
-20 -46 -37 -54 -77 -39 -35 12 -63 1 -54 -22 18 -44 18 -96 0 -128 -17 -32
-17 -35 -2 -52 10 -10 17 -24 17 -30 0 -7 2 -12 4 -12 9 0 93 41 123 61 l32
20 11 -22 c15 -28 -3 -99 -25 -99 -8 0 -15 -5 -15 -10 0 -20 74 2 113 33 20
17 37 34 37 39 0 9 54 11 88 2 12 -4 22 -11 22 -17 0 -17 -33 -87 -41 -87 -15
0 -39 -32 -39 -51 0 -29 44 -25 58 6 8 17 20 25 36 25 27 0 42 -15 26 -25 -5
-3 -10 -19 -10 -35 0 -16 -7 -30 -16 -34 -28 -11 -80 -6 -100 9 -10 8 -35 15
-54 15 -19 0 -53 7 -75 15 -22 8 -48 14 -57 15 -16 0 -16 -2 2 -20 11 -11 20
-26 20 -33 0 -11 -50 -33 -95 -43 -6 -1 -28 -13 -49 -28 -21 -14 -46 -26 -55
-26 -22 0 -41 -19 -41 -41 0 -33 -21 -32 -122 9 -60 24 -100 87 -68 107 6 3
10 28 10 55 0 37 6 55 26 79 14 17 23 35 19 41 -3 5 1 22 8 37 8 15 20 67 27
115 8 58 17 88 26 91 9 3 7 4 -3 3 -14 -1 -20 -15 -27 -62 l-9 -62 -51 -21
c-28 -11 -59 -21 -68 -21 -24 0 -48 -11 -48 -21 0 -5 9 -9 20 -9 32 0 23 -27
-13 -39 -17 -6 -44 -22 -59 -36 -15 -14 -32 -25 -38 -25 -5 0 -26 -18 -46 -40
-20 -22 -43 -40 -50 -40 -8 0 -17 -7 -20 -15 -9 -22 -46 -18 -70 8 -12 12 -27
40 -34 62 -7 22 -17 45 -22 52 -11 14 -78 15 -78 1 0 -4 -12 -8 -26 -8 -24 0
-26 -3 -22 -40 2 -23 -1 -40 -7 -40 -5 0 2 -11 17 -25 15 -14 34 -25 43 -25
10 0 0 -16 -30 -45 -44 -44 -45 -47 -32 -73 11 -23 18 -27 50 -24 35 3 37 1
37 -28 0 -20 5 -30 15 -30 8 0 15 -9 15 -19 0 -16 -9 -20 -57 -23 -62 -3 -98
11 -154 63 -15 15 -31 24 -34 21 -3 -3 -14 4 -25 16 -28 29 -87 40 -103 18
-19 -26 -44 -10 -51 32 -3 20 -15 52 -26 70 -19 30 -23 32 -58 26 -56 -10
-132 -54 -138 -81 -9 -35 1 -50 47 -73 47 -22 74 -25 84 -10 10 17 59 11 72
-8 18 -29 -34 -82 -79 -82 -36 0 -75 -30 -64 -49 4 -6 4 -22 0 -37 l-7 -27
-16 22 c-22 29 -68 20 -73 -12 -2 -16 -11 -23 -32 -25 -15 -2 -38 -14 -50 -27
-18 -21 -26 -23 -56 -17 -50 11 -93 -6 -85 -35 3 -14 -1 -25 -11 -31 -22 -12
-14 -54 14 -68 35 -17 40 -28 10 -20 -37 9 -56 -1 -63 -34 -9 -39 -25 -50 -71
-47 -26 1 -38 -2 -37 -10 2 -7 -8 -20 -22 -29 -14 -9 -25 -22 -25 -28 0 -7
-11 -34 -24 -60 l-24 -48 56 -57 c63 -63 96 -81 133 -74 37 7 66 -29 51 -62
-6 -14 -9 -32 -6 -40 4 -9 0 -15 -7 -16 -8 0 -23 -3 -34 -5 -11 -3 -37 -5 -58
-5 -37 0 -38 -1 -32 -30 6 -28 5 -29 -29 -29 -19 0 -37 -4 -40 -9 -3 -5 -51
-12 -106 -16 -56 -4 -103 -12 -108 -19 -12 -19 -100 -76 -117 -76 -19 0 -115
50 -115 60 0 3 7 15 16 26 11 13 17 15 20 7 7 -17 24 -16 24 1 0 13 67 46 94
46 14 0 29 51 30 104 1 41 27 55 55 29 12 -11 26 -33 31 -49 l8 -29 1 33 c1
17 6 32 11 32 6 0 10 8 10 18 0 10 5 23 11 29 6 6 11 30 12 54 l1 44 -77 2
c-42 1 -77 -3 -77 -8 0 -5 -12 -9 -27 -9 l-28 0 23 18 c20 16 22 21 12 47 -8
22 -8 35 0 51 10 18 8 29 -14 67 -16 31 -22 49 -14 53 7 4 8 31 4 77 -6 64
-16 105 -16 63 0 -10 -5 -14 -11 -10 -6 3 -32 8 -57 10 -123 10 -150 16 -155
35 -6 23 -52 35 -83 20 -27 -12 -32 -31 -9 -31 8 0 15 -4 15 -10 0 -21 -46 -8
-74 20 -30 30 -50 37 -60 21 -3 -4 -19 -11 -35 -14 -26 -5 -30 -11 -33 -44 -3
-35 -6 -38 -37 -41 -31 -3 -33 -2 -29 22 4 21 1 26 -16 26 -11 0 -32 13 -46
30 -34 42 -95 53 -119 21 -11 -14 -23 -20 -34 -15 -23 8 -21 25 3 31 16 4 18
8 9 20 -9 10 -9 17 -1 25 7 7 12 23 12 37 0 27 26 61 46 61 7 0 12 13 11 35
-1 33 -2 34 -19 18 -22 -20 -135 -28 -155 -11 -11 9 -18 7 -31 -5 -15 -16 -14
-18 6 -38 18 -16 26 -18 37 -9 10 8 19 9 32 1 10 -6 14 -11 10 -11 -5 0 1 -13
12 -29 25 -35 28 -91 6 -91 -8 0 -15 -7 -15 -16 0 -11 -5 -14 -17 -9 -10 4
-30 11 -44 15 -14 4 -36 13 -48 20 -36 19 -84 -3 -109 -51 -12 -23 -22 -49
-22 -59 0 -10 -7 -20 -15 -24 -8 -3 -15 -14 -15 -25 0 -28 -28 -52 -53 -46
-12 3 -28 1 -36 -4 -13 -8 -13 -15 1 -48 8 -21 12 -47 9 -56 -5 -14 -13 -9
-44 27 -20 25 -37 50 -37 55 0 6 -4 11 -10 11 -5 0 -10 6 -10 13 -1 26 -30 50
-64 52 -30 3 -37 -1 -48 -26 -13 -28 -41 -39 -53 -19 -9 15 -45 12 -51 -5 -4
-10 -20 -15 -50 -15 l-44 0 6 40 c5 30 20 54 60 96 50 51 56 55 86 49 18 -4
38 -13 44 -21 9 -11 18 -12 39 -4 14 6 31 8 36 4 15 -9 69 55 69 82 0 19 -5
24 -25 24 -14 0 -30 9 -37 20 -7 11 -20 20 -30 20 -9 0 -33 16 -54 35 -20 19
-45 35 -55 35 -10 0 -24 7 -33 15 -22 23 -42 18 -66 -15 -12 -17 -30 -30 -42
-30 -25 0 -58 27 -58 47 0 8 -13 1 -32 -17 -18 -18 -52 -41 -76 -52 -26 -11
-48 -30 -55 -46 -13 -31 -36 -51 -55 -52 -10 0 -13 11 -9 38 6 56 28 93 66
113 18 10 39 28 45 41 10 19 19 23 54 20 33 -2 43 2 52 18 13 24 81 28 99 6
14 -16 56 -26 68 -16 4 4 22 12 40 18 24 8 36 7 53 -5 12 -9 40 -16 62 -17 32
-2 45 3 64 23 13 14 24 29 24 33 0 14 66 68 90 73 14 3 49 -1 79 -9 38 -10 63
-11 79 -5 14 5 35 8 46 7 15 -2 21 2 20 15 -1 11 13 28 35 42 52 35 65 47 85
78 10 15 24 27 32 27 7 0 20 10 29 22 13 19 24 23 71 22 36 -1 59 -6 64 -15
11 -18 -7 -39 -34 -40 -31 -1 -80 -33 -85 -55 -1 -10 -10 -27 -18 -36 -8 -9
-12 -22 -8 -27 3 -6 2 -11 -4 -11 -20 0 16 -61 43 -76 34 -17 47 -18 24 -1
-14 12 -22 41 -19 75 1 12 92 18 104 6 3 -3 -3 -26 -14 -51 -10 -24 -19 -53
-19 -63 0 -13 -9 -20 -27 -22 -16 -2 -28 -7 -28 -13 0 -5 12 -11 28 -13 15 -2
27 2 27 8 0 14 69 3 90 -15 22 -19 79 -29 94 -16 8 7 24 7 49 0 37 -10 46 -22
27 -34 -21 -13 -10 -43 20 -54 21 -7 30 -17 30 -31 0 -12 4 -18 11 -15 6 4 8
13 5 21 -3 7 -1 16 4 19 6 4 10 22 10 40 0 40 20 55 76 55 23 0 41 -6 50 -17
7 -10 16 -15 20 -11 4 4 1 14 -5 22 -17 20 -8 32 34 46 19 6 35 16 35 22 0 6
9 3 20 -7 11 -10 20 -31 20 -46 0 -32 15 -46 33 -30 7 5 21 32 31 60 9 27 27
60 39 73 44 47 113 61 155 32 20 -14 22 -14 22 0 0 9 8 16 19 16 10 0 27 12
37 27 10 15 33 42 50 60 28 29 39 33 81 33 27 0 54 5 60 11 6 6 39 13 73 16
50 5 64 3 71 -10 13 -22 44 -11 76 27 19 23 39 34 78 41 39 8 52 8 49 0 -3 -6
7 -23 22 -38 l26 -27 28 20 c27 19 27 19 45 0 10 -11 29 -20 42 -20 18 0 23 5
23 25 0 17 6 25 18 26 9 1 24 3 32 4 8 1 25 3 38 4 12 0 22 7 23 14 1 23 89
87 120 87 16 0 29 -4 29 -9 0 -5 24 -8 53 -7 32 1 65 -6 86 -16 19 -10 35 -18
36 -18 7 0 -2 76 -9 82 -18 12 16 40 41 33 18 -4 25 0 32 17 12 30 56 61 109
76 23 7 42 17 42 22 0 16 44 11 85 -10 51 -26 63 -25 77 5 6 14 14 25 18 25 4
0 21 14 38 30 30 28 66 39 74 22 2 -4 23 3 48 16 37 19 40 23 17 19 -21 -3
-27 -1 -23 9 3 9 -8 17 -34 24 -22 6 -42 15 -45 20 -3 5 -18 5 -34 0 -21 -6
-35 -4 -50 7 -19 13 -22 12 -27 -1 -3 -9 -13 -16 -20 -16 -26 0 -27 30 -4 56
13 13 20 24 16 24 -19 0 30 63 59 75 23 10 40 28 54 59 18 35 31 48 71 65 30
13 50 28 50 38 0 54 75 112 163 126 33 5 39 3 49 -19 18 -40 39 -31 32 14 -11
68 55 137 140 148 17 2 45 8 61 13 24 7 33 5 44 -10 8 -12 26 -19 46 -19z
m-12565 6 c0 -3 -4 -8 -10 -11 -5 -3 -10 -1 -10 4 0 6 5 11 10 11 6 0 10 -2
10 -4z m13085 -28 c14 -6 25 -15 25 -20 0 -4 7 -8 15 -8 25 0 17 -37 -15 -67
-16 -15 -30 -33 -30 -39 0 -6 -11 -21 -25 -34 -25 -23 -25 -23 -59 -5 -28 15
-37 16 -50 6 -13 -11 -19 -8 -41 15 -30 33 -31 41 -5 49 24 8 70 48 70 61 0
11 37 36 65 46 11 3 21 6 22 7 1 1 14 -4 28 -11z m-298 -29 c8 -8 8 -18 1 -35
-10 -21 -13 -22 -32 -9 -11 8 -30 15 -43 15 -12 0 -25 5 -28 10 -3 6 4 10 17
10 13 0 30 5 38 10 20 13 34 12 47 -1z m-11637 -69 c0 -5 -2 -10 -4 -10 -3 0
-8 5 -11 10 -3 6 -1 10 4 10 6 0 11 -4 11 -10z m-433 -42 c-3 -8 -6 -5 -6 6
-1 11 2 17 5 13 3 -3 4 -12 1 -19z m302 -25 c1 -7 -3 -13 -9 -13 -5 0 -10 15
-9 33 0 27 2 29 9 12 5 -11 9 -26 9 -32z m11761 36 c0 -12 -31 -19 -55 -13
-12 3 -26 1 -29 -5 -10 -16 -36 -13 -36 3 0 8 10 17 23 19 33 7 97 4 97 -4z
m-11928 -79 c5 -36 -4 -38 -26 -5 -20 31 -20 35 3 35 13 0 20 -9 23 -30z m455
-6 c-3 -3 -12 -4 -19 -1 -8 3 -5 6 6 6 11 1 17 -2 13 -5z m5354 -31 c19 -9 35
-17 37 -18 1 -1 -4 -17 -11 -36 -8 -19 -11 -47 -8 -63 5 -26 7 -28 20 -13 7
10 24 17 37 17 34 0 30 -28 -8 -61 -28 -24 -31 -30 -18 -39 11 -7 18 -6 25 3
8 11 18 10 52 -5 45 -20 83 -64 83 -96 0 -30 -39 -73 -63 -70 -26 4 -35 -16
-10 -20 10 -2 26 -14 36 -28 17 -23 17 -24 -1 -24 -11 0 -31 -11 -45 -24 -14
-13 -28 -21 -31 -19 -3 3 -12 1 -19 -5 -14 -12 -27 -7 -27 11 0 5 7 7 15 3 9
-3 15 0 15 9 0 8 3 14 8 13 4 -2 7 2 7 7 0 6 -3 9 -7 8 -4 -2 -29 9 -55 23
-33 17 -56 23 -73 18 l-25 -6 23 -9 c31 -12 23 -34 -13 -34 -41 -1 -42 -22 -5
-60 l32 -33 -48 -25 c-27 -13 -60 -28 -74 -32 -26 -8 -82 -61 -100 -94 l-10
-21 -53 21 c-28 11 -56 24 -60 28 -15 15 5 40 44 55 35 14 39 20 39 50 0 25
-6 38 -24 50 -14 8 -27 23 -30 33 -5 16 -17 18 -88 16 -62 -2 -79 0 -70 9 7 7
12 22 12 35 0 42 80 61 100 23 16 -30 30 -15 30 30 0 22 9 54 20 72 21 35 26
68 10 68 -14 0 -12 93 3 112 6 8 30 28 52 44 22 16 42 31 45 35 10 10 69 31
77 26 4 -2 22 4 38 14 38 22 73 23 116 2z m-5291 -68 c0 -8 -4 -15 -10 -15 -5
0 -10 7 -10 15 0 8 5 15 10 15 6 0 10 -7 10 -15z m4830 -153 c0 -28 -11 -34
-32 -15 -25 22 -23 33 7 33 18 0 25 -5 25 -18z m5540 -72 c-20 -13 -40 -13
-40 0 0 6 12 10 28 10 21 0 24 -2 12 -10z m-5650 -16 c0 -14 -3 -14 -15 -4 -8
7 -15 14 -15 16 0 2 7 4 15 4 8 0 15 -7 15 -16z m-1155 -123 c3 -5 2 -12 -3
-15 -12 -7 -52 4 -52 15 0 12 47 12 55 0z m4556 -300 c-34 -9 -37 -27 -6 -35
29 -7 33 -22 7 -28 -24 -7 -76 38 -68 57 4 10 19 15 48 14 33 -1 38 -3 19 -8z
m3317 -83 c20 -20 14 -37 -10 -31 -52 11 -54 13 -34 29 24 17 29 17 44 2z
m-5398 -75 c0 -26 -16 -46 -31 -41 -8 3 -28 0 -45 -7 -23 -10 -35 -10 -43 -2
-30 30 4 62 69 65 42 2 50 -1 50 -15z m2620 -27 c0 -11 -5 -28 -10 -36 -9 -13
-11 -13 -20 0 -5 8 -8 21 -5 28 3 8 5 20 5 28 0 8 6 11 15 8 8 -4 15 -16 15
-28z m-2390 4 c0 -5 -9 -10 -20 -10 -11 0 -20 5 -20 10 0 6 9 10 20 10 11 0
20 -4 20 -10z m-1225 -41 c10 -15 -1 -23 -20 -15 -9 3 -13 10 -10 16 8 13 22
13 30 -1z m-49 -20 c0 -10 -4 -19 -9 -19 -4 0 -19 -12 -32 -26 -28 -30 -45
-24 -45 15 0 35 13 47 53 48 26 1 33 -3 33 -18z m227 -40 c-17 -17 -37 -1 -22
17 8 10 15 12 23 4 7 -7 7 -13 -1 -21z m3387 11 c-12 -22 -35 -26 -46 -9 -8
13 13 29 39 29 15 0 16 -3 7 -20z m-4117 -36 c8 -8 -24 -74 -34 -69 -6 5 -4
28 7 63 4 13 17 16 27 6z m5337 -28 c0 -24 -11 -46 -24 -46 -24 0 -38 18 -31
39 7 24 55 30 55 7z m1121 -38 c1 -7 1 -29 0 -49 -2 -22 4 -42 13 -52 12 -12
13 -16 3 -20 -7 -3 -19 -24 -26 -46 l-12 -42 -47 7 c-70 10 -79 22 -41 54 24
20 31 32 27 48 -4 13 -2 22 5 22 7 0 5 5 -3 10 -12 7 -12 10 -1 10 9 0 11 8 7
24 -4 18 -1 28 11 35 25 14 63 13 64 -1z m-7051 -30 c0 -17 -18 -44 -24 -37
-8 7 5 49 15 49 5 0 9 -6 9 -12z m3110 -83 c0 -8 -7 -15 -15 -15 -26 0 -18 20
13 29 1 1 2 -6 2 -14z m-100 -30 c-12 -13 -27 -22 -31 -19 -16 9 -10 24 14 34
37 15 42 11 17 -15z m-1830 -54 c0 -10 -7 -21 -15 -25 -8 -3 -15 -12 -15 -21
0 -8 -8 -15 -17 -16 -10 0 -13 -3 -7 -5 17 -7 4 -54 -15 -54 -26 0 -41 21 -41
56 0 44 26 70 67 65 6 -1 14 3 18 9 10 17 25 11 25 -9z m-335 -20 c-1 -16 -12
-41 -24 -57 -20 -25 -23 -26 -38 -12 -14 15 -14 19 6 44 11 14 21 33 21 40 0
8 8 14 19 14 14 0 18 -6 16 -29z m-2505 -1 c5 0 14 -9 20 -21 9 -16 8 -25 -5
-39 -16 -18 -16 -21 13 -49 20 -21 29 -37 25 -51 -6 -22 -23 -28 -23 -7 0 18
-62 57 -92 57 -24 0 -53 23 -60 48 -4 15 82 72 100 66 8 -2 18 -4 22 -4z
m4524 -5 c-4 -8 -13 -15 -22 -15 -13 0 -12 3 4 15 24 18 25 18 18 0z m-3474
-35 c0 -5 -4 -10 -10 -10 -5 0 -10 5 -10 10 0 6 5 10 10 10 6 0 10 -4 10 -10z
m-3030 -60 c0 -5 -5 -10 -11 -10 -5 0 -7 5 -4 10 3 6 8 10 11 10 2 0 4 -4 4
-10z m6360 -15 c0 -30 -15 -33 -30 -6 -14 27 -13 31 10 31 15 0 20 -7 20 -25z
m1680 6 c13 -26 13 -41 -2 -41 -23 0 -39 -16 -32 -33 5 -13 10 -14 25 -6 15 7
21 6 25 -5 7 -18 49 -12 75 10 23 20 35 17 54 -12 17 -26 15 -32 -22 -71 -16
-18 -21 -17 -61 14 -33 25 -35 25 -48 8 -8 -10 -14 -27 -14 -37 0 -28 -47 -47
-87 -35 -34 11 -43 33 -21 55 7 7 8 12 4 12 -5 0 -3 7 4 15 10 12 9 16 -3 21
-21 8 -11 29 38 81 46 48 51 50 65 24z m-4506 -22 c-21 -23 -54 -25 -54 -4 0
17 38 35 58 27 10 -3 9 -9 -4 -23z m1721 2 c1 -14 -8 -29 -27 -42 -33 -24 -36
-45 -8 -54 28 -9 25 -18 -10 -33 -37 -17 -50 -9 -50 29 0 27 -3 29 -36 29 -34
0 -35 -1 -32 -32 2 -18 -2 -33 -9 -35 -8 -3 -13 3 -13 14 0 14 -7 10 -30 -17
-25 -29 -32 -32 -40 -20 -17 26 -11 55 15 74 14 10 25 25 25 32 0 10 14 14 49
14 34 0 51 4 55 15 3 9 18 15 35 15 20 0 34 7 41 21 14 25 33 20 35 -10z
m-885 -27 c0 -8 -7 -14 -15 -14 -15 0 -21 21 -9 33 10 9 24 -2 24 -19z m-4345
-64 c3 -6 -1 -7 -9 -4 -18 7 -21 14 -7 14 6 0 13 -4 16 -10z m4318 -46 c28
-10 20 -21 -25 -32 -45 -12 -58 -9 -58 14 0 16 38 36 55 28 6 -2 18 -7 28 -10z
m-37 -68 c29 -22 14 -26 -41 -11 -41 10 -46 13 -25 17 43 9 46 8 66 -6z
m-1636 -56 c0 -5 -7 -10 -15 -10 -8 0 -15 5 -15 10 0 6 7 10 15 10 8 0 15 -4
15 -10z m5640 -31 c0 -16 -4 -29 -10 -29 -5 0 -10 16 -10 36 0 21 4 33 10 29
6 -3 10 -19 10 -36z m-8565 11 c12 -19 8 -72 -6 -81 -35 -22 -79 1 -79 40 0
12 6 21 14 21 7 0 19 7 26 15 14 17 36 20 45 5z m2965 -11 c0 -5 -4 -9 -10 -9
-5 0 -10 7 -10 16 0 8 5 12 10 9 6 -3 10 -10 10 -16z m-2885 1 c-3 -5 -11 -10
-16 -10 -6 0 -7 5 -4 10 3 6 11 10 16 10 6 0 7 -4 4 -10z m3283 -11 c-2 -6 -8
-10 -13 -10 -5 0 -11 4 -13 10 -2 6 4 11 13 11 9 0 15 -5 13 -11z m5802 -258
c0 -9 -24 -21 -41 -21 -16 0 -10 18 9 23 28 8 32 7 32 -2z m-7740 -306 c0 -16
-35 -21 -44 -6 -8 12 4 21 26 21 10 0 18 -7 18 -15z m-783 -535 c8 -25 17 -46
18 -48 6 -7 50 21 63 40 19 26 105 25 131 -1 10 -10 25 -21 32 -23 22 -7 -18
-87 -42 -85 -11 1 -19 5 -19 9 0 4 -3 7 -7 6 -5 0 -16 2 -26 7 -10 4 -33 5
-52 2 -19 -3 -35 -2 -35 4 0 18 -22 9 -27 -12 -5 -17 -11 -20 -37 -15 -17 4
-39 7 -48 7 -19 0 -35 38 -21 48 6 3 13 23 16 44 6 36 5 38 -16 31 -21 -6 -21
-6 2 15 34 30 51 23 68 -29z"/>
<path d="M8446 7481 c-4 -5 -2 -12 3 -15 5 -4 12 -2 15 3 4 5 2 12 -3 15 -5 4
-12 2 -15 -3z"/>
<path d="M9498 7413 c7 -3 16 -2 19 1 4 3 -2 6 -13 5 -11 0 -14 -3 -6 -6z"/>
<path d="M9560 7354 c0 -33 22 -60 39 -50 5 4 12 2 16 -4 3 -5 11 -10 17 -10
6 0 3 9 -7 20 -10 11 -22 17 -28 13 -5 -3 -7 -1 -4 4 4 6 -2 22 -13 34 l-19
24 -1 -31z"/>
<path d="M8582 7338 c2 -5 8 -9 13 -9 5 0 11 4 13 9 1 5 -4 9 -13 9 -9 0 -14
-4 -13 -9z"/>
<path d="M9575 7120 c-3 -5 -1 -10 4 -10 6 0 11 5 11 10 0 6 -2 10 -4 10 -3 0
-8 -4 -11 -10z"/>
<path d="M8278 7073 c-14 -3 -18 -15 -18 -46 0 -47 7 -61 31 -65 21 -3 33 26
18 44 -6 8 -9 21 -5 29 4 11 2 14 -6 9 -7 -5 -9 0 -6 14 4 12 5 21 5 21 -1 -1
-10 -3 -19 -6z"/>
<path d="M8218 7030 c-3 -16 -1 -30 4 -30 4 0 8 14 8 30 0 17 -2 30 -4 30 -2
0 -6 -13 -8 -30z"/>
<path d="M8270 6489 c0 -18 2 -19 15 -9 15 12 12 30 -6 30 -5 0 -9 -10 -9 -21z"/>
<path d="M8420 6150 c0 -5 7 -10 15 -10 8 0 15 5 15 10 0 6 -7 10 -15 10 -8 0
-15 -4 -15 -10z"/>
<path d="M6917 5871 c3 -12 9 -21 14 -21 14 0 11 16 -5 29 -12 10 -13 8 -9 -8z"/>
<path d="M8590 5590 c0 -5 5 -10 10 -10 6 0 10 5 10 10 0 6 -4 10 -10 10 -5 0
-10 -4 -10 -10z"/>
<path d="M8637 5593 c-5 -7 -3 -22 3 -34 6 -11 9 -28 5 -37 -5 -13 -3 -14 6
-5 8 8 9 23 2 50 -5 24 -12 33 -16 26z"/>
<path d="M8677 5525 c-4 -9 -1 -18 9 -22 22 -8 30 5 12 23 -14 14 -16 14 -21
-1z"/>
<path d="M8605 5420 c-3 -5 1 -10 10 -10 9 0 13 5 10 10 -3 6 -8 10 -10 10 -2
0 -7 -4 -10 -10z"/>
<path d="M8491 5395 c-18 -20 -20 -25 -7 -25 9 0 16 5 16 10 0 6 7 10 15 10 8
0 15 -4 15 -10 0 -5 -4 -10 -10 -10 -5 0 -10 -11 -10 -25 0 -14 -4 -25 -10
-25 -5 0 -10 5 -10 11 0 8 -5 8 -15 -1 -34 -28 -9 -61 27 -36 12 9 30 16 40
16 25 0 25 71 0 93 -23 21 -22 21 -51 -8z m59 -55 c0 -5 -4 -10 -10 -10 -5 0
-10 5 -10 10 0 6 5 10 10 10 6 0 10 -4 10 -10z"/>
<path d="M9257 5347 c-8 -22 7 -37 42 -42 40 -5 63 3 54 19 -4 6 -8 16 -8 21
0 16 -82 18 -88 2z"/>
<path d="M7178 5313 c7 -3 16 -2 19 1 4 3 -2 6 -13 5 -11 0 -14 -3 -6 -6z"/>
<path d="M8580 5270 c-8 -5 -10 -10 -5 -10 6 0 17 5 25 10 8 5 11 10 5 10 -5
0 -17 -5 -25 -10z"/>
<path d="M7728 5263 c-21 -5 -24 -23 -5 -23 7 0 22 7 33 15 20 15 9 18 -28 8z"/>
<path d="M8230 5232 c0 -6 9 -12 20 -15 11 -3 20 -3 20 -1 0 2 -9 8 -20 14
-11 6 -20 7 -20 2z"/>
<path d="M8888 5223 c7 -3 16 -2 19 1 4 3 -2 6 -13 5 -11 0 -14 -3 -6 -6z"/>
<path d="M8976 5205 c4 -8 11 -15 16 -15 6 0 5 6 -2 15 -7 8 -14 15 -16 15 -2
0 -1 -7 2 -15z"/>
<path d="M7865 5170 c-4 -6 6 -10 22 -10 22 0 25 2 13 10 -19 12 -27 12 -35 0z"/>
<path d="M8013 5163 c-16 -6 -17 -23 -2 -23 7 0 18 -8 25 -17 9 -14 17 -15 29
-8 9 6 17 15 16 20 0 13 -52 34 -68 28z"/>
<path d="M8997 5163 c-3 -5 -1 -17 4 -28 7 -17 8 -17 8 8 1 27 -4 34 -12 20z"/>
<path d="M8121 5147 c2 -1 11 -8 20 -15 13 -10 18 -10 22 1 3 8 -4 14 -21 15
-14 1 -24 1 -21 -1z"/>
<path d="M8117 5123 c-9 -8 22 -43 38 -43 7 0 18 7 25 15 10 13 9 15 -8 15
-12 0 -24 5 -27 10 -7 12 -19 13 -28 3z"/>
<path d="M8535 5091 c-3 -5 -1 -12 5 -16 5 -3 10 1 10 9 0 18 -6 21 -15 7z"/>
<path d="M11446 6357 c3 -10 9 -15 12 -12 3 3 0 11 -7 18 -10 9 -11 8 -5 -6z"/>
<path d="M11330 6250 c-9 -6 -10 -10 -3 -10 6 0 15 5 18 10 8 12 4 12 -15 0z"/>
<path d="M11450 3180 c0 -5 7 -10 16 -10 8 0 12 5 9 10 -3 6 -10 10 -16 10 -5
0 -9 -4 -9 -10z"/>
<path d="M10290 2490 c0 -5 7 -10 15 -10 8 0 15 5 15 10 0 6 -7 10 -15 10 -8
0 -15 -4 -15 -10z"/>
<path d="M10160 2325 c0 -8 9 -15 20 -15 13 0 18 5 14 15 -4 8 -12 15 -20 15
-8 0 -14 -7 -14 -15z"/>
<path d="M11180 9130 c-9 -6 -10 -10 -3 -10 6 0 15 5 18 10 8 12 4 12 -15 0z"/>
<path d="M11470 8816 c0 -8 4 -17 9 -20 5 -4 7 3 4 14 -6 23 -13 26 -13 6z"/>
<path d="M12100 7096 c0 -8 5 -18 10 -21 6 -3 10 3 10 14 0 12 -4 21 -10 21
-5 0 -10 -6 -10 -14z"/>
<path d="M13413 6475 c4 -9 7 -21 7 -26 0 -5 15 -9 33 -9 41 0 107 -23 121
-43 6 -8 26 -18 44 -22 26 -5 36 -3 47 12 21 27 18 36 -19 61 -27 19 -51 24
-117 28 -45 2 -91 6 -102 10 -16 5 -19 3 -14 -11z"/>
<path d="M3744 6325 c-8 -19 -80 -38 -121 -32 -24 4 -31 2 -26 -8 5 -15 38
-29 50 -22 11 7 53 -11 53 -22 0 -5 -6 -8 -14 -7 -8 0 -14 -3 -13 -8 3 -14 64
-19 72 -6 3 5 24 10 46 10 32 0 39 3 39 20 0 13 7 20 19 20 11 0 23 5 26 10 3
6 -3 10 -13 10 -12 0 -22 9 -25 21 -5 18 -11 20 -36 14 -20 -4 -31 -3 -31 4 0
16 -20 13 -26 -4z"/>
<path d="M3496 6295 c-3 -9 0 -15 9 -15 9 0 12 6 9 15 -4 8 -7 15 -9 15 -2 0
-5 -7 -9 -15z"/>
<path d="M3445 6281 c-6 -11 29 -33 39 -24 7 7 -12 33 -25 33 -4 0 -10 -4 -14
-9z"/>
<path d="M3545 6220 c-3 -5 1 -10 9 -10 8 0 18 5 21 10 3 6 -1 10 -9 10 -8 0
-18 -4 -21 -10z"/>
<path d="M13287 6143 c-4 -3 -7 -11 -7 -17 0 -6 5 -5 12 2 6 6 9 14 7 17 -3 3
-9 2 -12 -2z"/>
<path d="M3460 6132 c0 -5 14 -19 32 -32 22 -16 36 -20 46 -14 23 15 19 29 -8
32 -14 2 -29 8 -34 13 -12 11 -36 12 -36 1z"/>
<path d="M4405 6040 c3 -5 11 -10 16 -10 6 0 7 5 4 10 -3 6 -11 10 -16 10 -6
0 -7 -4 -4 -10z"/>
<path d="M5890 5200 c0 -14 26 -23 41 -15 8 6 7 10 -2 16 -19 12 -39 11 -39
-1z"/>
<path d="M6597 5123 c-4 -3 -7 -15 -7 -25 0 -10 -7 -21 -15 -24 -11 -4 -8 -11
13 -29 21 -18 31 -21 45 -13 10 5 16 15 14 23 -3 7 -1 17 5 23 14 14 -8 52
-31 52 -10 0 -21 -3 -24 -7z"/>
<path d="M6503 4803 c-19 -7 -16 -48 5 -66 23 -21 52 -22 52 -2 0 8 6 15 14
15 21 0 27 27 10 45 -15 14 -56 19 -81 8z"/>
<path d="M118 4313 c7 -3 16 -2 19 1 4 3 -2 6 -13 5 -11 0 -14 -3 -6 -6z"/>
<path d="M922 4100 c0 -14 2 -19 5 -12 2 6 2 18 0 25 -3 6 -5 1 -5 -13z"/>
<path d="M480 4099 c0 -5 5 -7 10 -4 6 3 10 8 10 11 0 2 -4 4 -10 4 -5 0 -10
-5 -10 -11z"/>
<path d="M747 4066 c-4 -10 -5 -21 -2 -24 9 -9 17 6 13 25 -3 17 -4 17 -11 -1z"/>
<path d="M800 4060 c0 -5 5 -10 10 -10 6 0 10 5 10 10 0 6 -4 10 -10 10 -5 0
-10 -4 -10 -10z"/>
<path d="M1921 4004 c0 -11 3 -14 6 -6 3 7 2 16 -1 19 -3 4 -6 -2 -5 -13z"/>
<path d="M1945 3980 c4 -6 11 -8 16 -5 14 9 11 15 -7 15 -8 0 -12 -5 -9 -10z"/>
<path d="M4427 3817 c-13 -21 -14 -26 -2 -30 19 -8 34 14 26 37 -7 17 -8 16
-24 -7z"/>
<path d="M4400 3666 c0 -9 30 -14 35 -6 4 6 -3 10 -14 10 -12 0 -21 -2 -21 -4z"/>
<path d="M4845 3160 c4 -6 11 -8 16 -5 14 9 11 15 -7 15 -8 0 -12 -5 -9 -10z"/>
<path d="M4710 3080 c0 -5 5 -10 10 -10 6 0 10 5 10 10 0 6 -4 10 -10 10 -5 0
-10 -4 -10 -10z"/>
<path d="M4997 3010 c3 -12 12 -20 22 -18 24 5 19 33 -6 36 -17 3 -20 -1 -16
-18z"/>
<path d="M4908 2976 c-28 -22 -37 -46 -17 -46 5 0 15 -13 20 -30 13 -36 23
-38 43 -8 13 19 14 24 2 37 -8 9 -16 28 -18 43 l-3 26 -27 -22z"/>
<path d="M4966 2784 c-9 -22 -8 -24 9 -18 8 4 15 12 15 20 0 19 -16 18 -24 -2z"/>
<path d="M4720 2760 c0 -5 5 -10 10 -10 6 0 10 5 10 10 0 6 -4 10 -10 10 -5 0
-10 -4 -10 -10z"/>
<path d="M387 2573 c-20 -3 -33 -15 -48 -44 -19 -38 -22 -40 -52 -34 -18 4
-36 11 -42 15 -5 5 -44 11 -85 13 -41 3 -94 9 -117 12 l-43 7 0 -74 c0 -70 2
-76 25 -88 33 -17 31 -60 -3 -75 -20 -9 -22 -16 -22 -97 0 -47 3 -93 6 -102 8
-20 24 -21 24 -1 0 8 9 19 20 25 11 6 18 15 15 19 -3 5 2 12 11 15 11 4 13 14
9 39 -6 31 -4 35 24 47 19 8 31 20 31 31 0 11 1 19 3 20 1 0 38 5 82 10 94 10
107 13 121 22 6 3 37 9 67 13 47 6 58 4 63 -9 4 -12 11 -14 22 -8 21 11 72 16
92 8 8 -3 31 -8 50 -10 99 -13 166 -29 176 -42 18 -24 53 -18 66 10 10 22 8
29 -12 50 -13 14 -32 25 -42 25 -24 0 -76 26 -104 52 -12 10 -28 18 -35 16 -8
-2 -13 3 -12 10 2 6 -3 12 -10 12 -6 0 -21 14 -32 30 -11 17 -44 44 -74 60
-54 30 -94 35 -174 23z"/>
<path d="M1630 2080 c0 -5 5 -10 11 -10 5 0 7 5 4 10 -3 6 -8 10 -11 10 -2 0
-4 -4 -4 -10z"/>
<path d="M0 1905 c0 -8 9 -15 20 -15 13 0 18 5 14 15 -4 8 -12 15 -20 15 -8 0
-14 -7 -14 -15z"/>
<path d="M16 1825 c4 -8 10 -15 15 -15 5 0 9 7 9 15 0 8 -7 15 -15 15 -9 0
-12 -6 -9 -15z"/>
<path d="M7 1793 c-13 -12 -7 -53 7 -53 10 0 14 10 14 30 -1 29 -8 37 -21 23z"/>
</g>
</svg>
